<svg xmlns="http://www.w3.org/2000/svg" width="1024" height="1024" viewBox="0 0 1024 1024">
  <rect width="1024" height="1024" rx="228" ry="228" fill="#111111"/>
  <g transform="translate(112, 112) scale(4.00)">

<!-- SVG created with Arrow, by QuiverAI (https://quiver.ai) -->
  <path d="m4.41 74.16 16.07-30.64 19.71-19.43 41.17-15.27 38.5 0.99 29.3 7.88 33 29.08 13.86 41.44v27.93l-12.15 19.02-6.03 1.55-2.23 7.99-12.23 16.9-25.22 7.46-3.49-1.7 4.4 18.7c0.74 3.05-1.26 4.63-3.26 4.63h-8.1c-1.52 0-2.59-0.78-3.32-2.31l-15.58-25.35-8.33-4.84-5.69-7.97-13.87 4.2-24-8.13-9-20.7-24.95-0.07c-1.45 0-2.3-0.78-3.08-1.91l-14.78-19.9-0.7-1.77v-27.78z" fill="#2E0000"/>
  <path d="m7.99 74.28 15.64-29.18 18.18-18.28 39.67-14.74 38.66 0.64 27.77 7.58 29.9 27.42 14.9 40.75v26.94l-11.75 18.3-48.29 1.1-51.59 16-22.5-7.49-10.44-21.4-25.08-0.06-15.07-20.25v-27.33z" fill="url(#paint0_radial_1001_1530)"/>
  <path d="m7.99 74.28 16-25.82 8.8 11.32-9.95 10.31-14.85 4.19z" fill="#892506"/>
  <path d="m23.99 46.09 17.82-18.48-4.47 27.36-3.42 4.81-9.93-13.69z" fill="#B94309"/>
  <path d="m41.81 27.61 8.28 11.1 31.65-26.63-39.93 15.53z" fill="#D97018"/>
  <path d="m41.81 27.61 8.28 12.38-1.07 1-11.68 13.08 4.47-26.46z" fill="#F2B25F"/>
  <path d="m81.74 12.08 19.44 21.63-6.83 13.96-0.52 27.64-9.95-5.22-0.39-30.98c3.42-1.4 5.1-3.9 4.9-6.63-0.32-4.37-3.11-4.93-5.28-4.87-3.04 0.08-4.4 2.3-5.25 4.06l-8.52 0.81 12.4-20.4z" fill="url(#paint1_linear_1001_1530)"/>
  <path d="m120.1 12.72-23.52 36.2 0.13 4.8 24.17-36.92 24.79 6.42-20.9 14.1-3.04-0.26-12.36 20.33v24.72l2.5-1.06 0.26-21.83 11.75-17.84h15.89l10.08 7.08 25.22-0.79-27.9-24.71-27.07-10.24z" fill="url(#paint2_linear_1001_1530)"/>
  <path d="m147 22.96-0.85 19.2 3.79 5.51 25.22-0.33-28.16-24.38z" fill="#F4B03A"/>
  <path d="m120.9 16.8-24.3 34.56v26.75l24.3-61.31z" fill="#FDC25B"/>
  <path d="m147 23.22-1.04 19.2 3.85 5.25 25.22-0.33-28.03-24.12z" fill="#F9B942"/>
  <path d="m151.1 50.91 25.6-0.39v33.62l-4.47 4.2v4.37l4.47 4.44v10.57l-5.56-2.86-6.03-7.12-1.39-2.63-14.78-7.99-12.67 10.03-9.55-13.21 0.39-7.75 20.91-18.09 0.52-7.19h2.56z" fill="url(#paint3_linear_1001_1530)"/>
  <path d="m181.2 53.81 10.9 34-3.49 1.28-6.47-20.63-0.94-14.65z" fill="url(#paint4_linear_1001_1530)"/>
  <path d="m188.6 89.09 2.36-0.95v27.01l-2.36 0.78v-26.84z" fill="#F89B33"/>
  <path d="m188.6 114.8 1.97 0.13-11.94 18.03-1.52-1.28 11.49-16.88z" fill="#C25016"/>
  <path d="m188.6 114.3-9.78-4.97-10.6 9.77 8.96 11.75 11.42-16.55z" fill="url(#paint5_linear_1001_1530)"/>
  <path d="m151.2 50.91 25.47-0.26v14.87l-6.66 6.6-3.92-7.35-5.83 1.27-9.06-12.75v-2.38z" fill="#962907"/>
  <path d="m181.2 66.62 6.9 22.01-0.52 25.41-6.89-4.51 0.51-42.91z" fill="url(#paint6_linear_1001_1530)"/>
  <path d="m149.2 50.06 1.39-0.03v31.76l-13.99 16.34-58.33 17.8-7.83 11.62 1.84 1.46 7.83-10.17 42.26-1.83h42.62l13.62-9.95v-12.46c3.18-1.56 4.76-3.39 4.63-5.97-0.13-2.84-1.68-3.62-3.85-4.47l-0.26-36.03-1.68-1.1-1.2 0.13-0.49 0.51-25.92 0.46-0.64 1.93zm28.56 37.29c2.1 0 2.6 0.96 2.6 2.59s-0.91 2.38-2.2 2.38c-1.59 0-2.6-0.91-2.6-2.54 0-1.64 0.82-2.43 2.2-2.43zm-26.46-36.44 25.34-0.2v33.81c-2.88 0.69-4.85 2.53-4.85 5.61s1.52 4.58 4.1 5.57v10.44l-11.03 10.18h-42.88l-43.71-1.5-7.09 12.14-1.25-0.92 7.83-11.03 57.06-19.9 13.72-14.25 0.66-29.95h2.1z" fill="url(#paint7_linear_1001_1530)"/>
  <path d="m139.1 37.19h-17.42l-12.37 20.07v25.9l2.91-1.05v-22.89l11.54-17.84h15.89l8.27 8.75v30.21l-12.8 14.77-57.84 19.64-17.21 24.18 0.91 2.1 18.3 5.68 52.52-16.28 45.18 0.26-9.95-11.78-44.77-2.19-13.49-9.59 27.84-9.52 13.8-16.4v-33.6l-9.29-10.42h-2.02z" fill="url(#paint8_linear_1001_1530)"/>
  <path d="m131 50.78c-3.92 0-5.69 3.55-5.69 5.77 0 2.86 1.58 4.69 4.23 6.18v5.01l-7.98 10.5-8.27 2.81v2.89l10.68-3.28 9-11.61v-6.32c2.58-0.99 3.04-3.32 2.97-5.92-0.06-2.87-1.45-6.03-4.94-6.03zm-0.13 3.16c1.97 0 2.61 1.7 2.61 3.07 0 1.76-1.22 2.85-2.48 2.85-1.72 0-2.63-1.35-2.63-2.72 0-1.63 1.17-3.2 2.5-3.2z" fill="url(#paint9_linear_1001_1530)"/>
  <path d="m164.2 63.25c-3.7 0-5.09 3.67-5.09 5.6 0 2.86 1.91 4.06 4.57 5.18v23.58l-9.95 10.83-14.95-0.26v0.56h15.6l11.45-11.59v-23.25c2.65-1.25 3.23-3.35 3.23-5.44 0-2.74-1.77-5.21-4.86-5.21zm0.06 3.18c1.73 0 2.44 1.63 2.44 2.81 0 1.5-1.07 2.55-2.18 2.55-1.45 0-2.3-1.18-2.3-2.42 0-1.43 0.91-2.94 2.04-2.94z" fill="url(#paint10_linear_1001_1530)"/>
  <path d="m83.11 31.01c1.97 0 2.61 1.7 2.61 3.08 0 1.76-0.76 2.97-2.22 2.97-1.73 0-2.45-1.34-2.45-2.71 0-1.64 0.72-3.34 2.06-3.34z" fill="#D97018"/>
  <path d="m7.99 74.28 18.24 20.83-18.24 6.5v-27.33z" fill="#A02907"/>
  <path d="m7.99 74.28 25.22 2.38 0.52-15.5-25.74 13.12z" fill="#F09029"/>
  <path d="m27.75 94.33c1.39-1.29 2.78-1.29 4.58-1.29 3.29 0 4.07 2.47 4.01 4.77-0.02 0.67-0.17 1.33-0.45 1.94l17.42 12.4 2.03-1.43 5.43-7.62-8.34-7.66-16.61 0.72-1.07-2.64-1.54-0.68-5.46 0.68-2.72 3.63v3.26l1.26 2.31 3.92 1.32 3.52-0.94 1.21-0.91 16.52 12.43-4.73 6.98-23.28-0.2 4.3-16.54c-2.72-1.05-3.04-3.12-3.04-5.05 0-2.2 0.91-3.83 3.04-5.48zm4.01 1.37c1.66-0.46 2.86 0.73 2.86 2.69 0 1.63-0.7 2.83-2.16 2.83-1.8 0-2.51-1.2-2.51-2.57 0-1.24 0.52-2.54 1.81-2.95z" fill="url(#paint11_linear_1001_1530)"/>
  <path d="m33.73 59.22 17.76-15.5 16.38 19.01c0.85 0.99 0.65 2.99-0.26 5.93l-6.27 17.22 5.29 5.98-2.55 3.25-10.38-14.77v-7.49c3.01-1.19 3.15-3.93 3.08-5.37-0.13-2.73-2.03-5.27-5.17-5.27-3.92 0-4.82 3.9-4.82 5.4 0 2.41 1.22 3.33 3.05 4.51l-12.5 7.32-2.72 5.28-0.89-0.06v-25.44zm17.88 6.3c1.73 0 2.34 1.24 2.34 2.61 0 1.5-1.13 2.42-2.27 2.42-1.46 0-2.21-1.18-2.21-2.35 0-1.44 1.01-2.68 2.14-2.68z" fill="url(#paint12_linear_1001_1530)"/>
  <path d="m37.34 60.11 14.34-16.2 15.96 18.82c1.2 1.44 0.42 4.16-0.62 7.36l-5.81 16.05-7.51-10.7v-2.79c2.65-0.99 3.14-3.47 3.08-5.3-0.1-2.6-1.96-5.14-5.04-5.14-3.92 0-4.95 3.83-4.95 5.27 0 2.54 1.42 3.66 3.18 4.78l-12.63 7.18v-19.33zm14.27 5.41c1.73 0 2.34 1.24 2.34 2.61 0 1.5-1.13 2.42-2.27 2.42-1.46 0-2.21-1.18-2.21-2.35 0-1.44 1.01-2.68 2.14-2.68z" fill="#B93808"/>
  <path d="m36.08 83.16 17.03 10.23 9.22 8.8 2.07-3.08-9.35-7.05-17.71-9.42-1.26 0.52z" fill="#6E1302"/>
  <path d="m123.4 82.11-53.37 16.61-20.01 25.02 1.91 0.99 19.87-22.92 56.54-17.87-1.64-1.83h-3.3z" fill="url(#paint13_linear_1001_1530)"/>
  <path d="m132.7 138.1-13.16 13.44 0.6 4.3 18.51 9.29-5.44-19.36 6.63-7.42-7.14-0.25z" fill="url(#paint14_linear_1001_1530)"/>
  <path d="m139.8 138.3-6.63 7.42 27.1 13.08 11.03-13.82 1.7-1.76 0.71-1.21v-2.93l-33.91-0.78z" fill="url(#paint15_linear_1001_1530)"/>
  <path d="m173.7 142.8-40.54 2.93 27.1 12.56 13.44-15.49z" fill="#D66518"/>
  <path d="m100 148.8 3.86 5.32 9.54 4.97 14.89 22.01 0.71 5.25h3.12l-15.89-29.18-9.82-6.07-3.98-3.52-2.43 1.22z" fill="url(#paint16_linear_1001_1530)"/>
  <path d="m112.9 144.7 2.56-0.26 3.85 11.26 13.86 9.42-13.07-7.91-7.2-12.51z" fill="#5E0E01"/>
  <path d="m126.7 120-16.55 5.29 21.99 4.47-5.44-9.76z" fill="#A32907"/>
  <path d="m94.98 127.6 27.37-9.23 2.72 0.98-6.03-0.98-23.54 8.64c-1.07-2.54-2.84-3.35-5.27-3.35-3.92 0-5.21 3.42-5.21 5.65 0 3.39 2.03 5.83 5.15 5.83 3.45 0 4.88-3 5.07-5.37l-0.26-2.17zm-4.29-0.39c1.97 0 2.61 1.38 2.61 2.49 0 1.37-1.16 2.44-2.42 2.44-1.73 0-2.44-1.34-2.44-2.44 0-1.31 0.91-2.49 2.25-2.49z" fill="url(#paint17_linear_1001_1530)"/>
  <path d="m54.15 125.1 4.94 16.82 21.99 6.96v-2.47l-19.87-6-7.06-15.31z" fill="#7A1A05"/>
  <defs>
    <radialGradient id="paint0_radial_1001_1530" cx="0" cy="0" r="1" gradientTransform="translate(86.27 81.99) scale(102)" gradientUnits="userSpaceOnUse">
      <stop stop-color="#FFDE68" offset="0"/>
      <stop stop-color="#FF3901" offset=".3177"/>
      <stop stop-color="#B53608" offset=".6094"/>
      <stop stop-color="#822506" offset="1"/>
    </radialGradient>
    <linearGradient id="paint1_linear_1001_1530" x1="84.74" x2="84.74" y1="12.08" y2="75.31" gradientUnits="userSpaceOnUse">
      <stop stop-color="#B43808" offset="0"/>
      <stop stop-color="#820901" offset="1"/>
    </linearGradient>
    <linearGradient id="paint2_linear_1001_1530" x1="136.3" x2="136.3" y1="12.72" y2="83.94" gradientUnits="userSpaceOnUse">
      <stop stop-color="#CF5409" offset="0"/>
      <stop stop-color="#F89A1C" offset="1"/>
    </linearGradient>
    <linearGradient id="paint3_linear_1001_1530" x1="154.4" x2="154.4" y1="50.52" y2="107.7" gradientUnits="userSpaceOnUse">
      <stop stop-color="#922707" offset="0"/>
      <stop stop-color="#751A05" offset="1"/>
    </linearGradient>
    <linearGradient id="paint4_linear_1001_1530" x1="186.7" x2="186.7" y1="53.81" y2="89.09" gradientUnits="userSpaceOnUse">
      <stop stop-color="#892406" offset="0"/>
      <stop stop-color="#A63209" offset="1"/>
    </linearGradient>
    <linearGradient id="paint5_linear_1001_1530" x1="178.4" x2="178.4" y1="109.3" y2="133" gradientUnits="userSpaceOnUse">
      <stop stop-color="#B93E09" offset="0"/>
      <stop stop-color="#972907" offset="1"/>
    </linearGradient>
    <linearGradient id="paint6_linear_1001_1530" x1="184.7" x2="184.7" y1="66.62" y2="114.3" gradientUnits="userSpaceOnUse">
      <stop stop-color="#8E2908" offset="0"/>
      <stop stop-color="#CF5E12" offset="1"/>
    </linearGradient>
    <linearGradient id="paint7_linear_1001_1530" x1="126.3" x2="126.3" y1="47.03" y2="129" gradientUnits="userSpaceOnUse">
      <stop stop-color="#3D0000" offset="0"/>
      <stop stop-color="#691201" offset="1"/>
    </linearGradient>
    <linearGradient id="paint8_linear_1001_1530" x1="123.2" x2="123.2" y1="37.19" y2="131.7" gradientUnits="userSpaceOnUse">
      <stop stop-color="#470000" offset="0"/>
      <stop stop-color="#8D2103" offset=".52"/>
      <stop stop-color="#691201" offset="1"/>
    </linearGradient>
    <linearGradient id="paint9_linear_1001_1530" x1="124.6" x2="124.6" y1="50.78" y2="83.94" gradientUnits="userSpaceOnUse">
      <stop stop-color="#510000" offset="0"/>
      <stop stop-color="#892103" offset="1"/>
    </linearGradient>
    <linearGradient id="paint10_linear_1001_1530" x1="154" x2="154" y1="63.25" y2="108.7" gradientUnits="userSpaceOnUse">
      <stop stop-color="#350000" offset="0"/>
      <stop stop-color="#701802" offset="1"/>
    </linearGradient>
    <linearGradient id="paint11_linear_1001_1530" x1="32.44" x2="32.44" y1="92.84" y2="121.6" gradientUnits="userSpaceOnUse">
      <stop stop-color="#380000" offset="0"/>
      <stop stop-color="#B93808" offset="1"/>
    </linearGradient>
    <linearGradient id="paint12_linear_1001_1530" x1="50.73" x2="50.73" y1="43.72" y2="102.2" gradientUnits="userSpaceOnUse">
      <stop stop-color="#320000" offset="0"/>
      <stop stop-color="#B93808" offset="1"/>
    </linearGradient>
    <linearGradient id="paint13_linear_1001_1530" x1="89.19" x2="89.19" y1="82.11" y2="124.7" gradientUnits="userSpaceOnUse">
      <stop stop-color="#FEFBA7" offset="0"/>
      <stop stop-color="#F89A1C" offset="1"/>
    </linearGradient>
    <linearGradient id="paint14_linear_1001_1530" x1="128.5" x2="128.5" y1="138.1" y2="165.1" gradientUnits="userSpaceOnUse">
      <stop stop-color="#FDC049" offset="0"/>
      <stop stop-color="#B64714" offset="1"/>
    </linearGradient>
    <linearGradient id="paint15_linear_1001_1530" x1="153.4" x2="153.4" y1="138.3" y2="158.8" gradientUnits="userSpaceOnUse">
      <stop stop-color="#CF5409" offset="0"/>
      <stop stop-color="#D96D18" offset="1"/>
    </linearGradient>
    <linearGradient id="paint16_linear_1001_1530" x1="116.1" x2="116.1" y1="147.6" y2="186.4" gradientUnits="userSpaceOnUse">
      <stop stop-color="#600" offset="0"/>
      <stop stop-color="#B94410" offset=".51"/>
      <stop stop-color="#751A05" offset="1"/>
    </linearGradient>
    <linearGradient id="paint17_linear_1001_1530" x1="108.6" x2="108.6" y1="118.3" y2="135.1" gradientUnits="userSpaceOnUse">
      <stop stop-color="#470000" offset="0"/>
      <stop stop-color="#420000" offset="1"/>
    </linearGradient>
  </defs>

  </g>
</svg>
